Coordinates
version=1
nRows=19
nColumns=24
inDegrees=yes

Units are S.I. units (second, meters, Newtons, ...)
Angles are in degrees.

endheader
time	pelvis_tilt	pelvis_list	pelvis_rotation	pelvis_tx	pelvis_ty	pelvis_tz	hip_flexion_r	hip_adduction_r	hip_rotation_r	knee_angle_r	ankle_angle_r	subtalar_angle_r	mtp_angle_r	hip_flexion_l	hip_adduction_l	hip_rotation_l	knee_angle_l	ankle_angle_l	subtalar_angle_l	mtp_angle_l	lumbar_extension	lumbar_bending	lumbar_rotation
      2.19000000	     12.94606704	      5.66431413	     -3.54728076	     -0.67682270	      0.98961482	     -0.00613795	    -16.90451461	     -5.10839920	    -12.09421881	    -17.02040964	     13.45106110	     -1.52396703	      2.22636442	      7.24163301	      5.15765351	    -27.48110382	     -1.23846623	     -3.01952779	     24.18316384	     34.27742461	    -28.40759253	     -8.26847374	     26.86184759
      2.19500000	     13.02877732	      5.73430478	     -3.72142757	     -0.67159223	      0.98924847	     -0.00636444	    -17.28358319	     -5.27293265	    -11.91797815	    -17.06392256	     13.51708755	     -1.57523389	      2.31428155	      7.22850958	      5.18999123	    -27.56400065	     -1.82128753	     -3.01384509	     23.54449390	     34.31033665	    -28.45575224	     -8.44116655	     26.95632104
      2.20000000	     13.09925420	      5.81539202	     -3.82484415	     -0.66631015	      0.98888694	     -0.00671534	    -17.67217102	     -5.43177263	    -11.83894045	    -17.08751626	     13.50460420	     -1.63012289	      2.68254367	      7.22606331	      5.24846318	    -27.44044859	     -2.41858128	     -3.05937059	     22.67162917	     34.61307338	    -28.49676459	     -8.59273794	     26.94788602
      2.20500000	     13.17987493	      5.90413469	     -4.00898867	     -0.66105033	      0.98857164	     -0.00696790	    -18.02849835	     -5.62685863	    -11.65662381	    -17.15991311	     13.40372524	     -1.73549095	      3.91864440	      7.19344410	      5.31557226	    -27.41437188	     -2.97079972	     -3.32811630	     21.80731073	     35.82669697	    -28.53985514	     -8.78673923	     27.03425502
      2.21000000	     13.25542412	      5.98015350	     -4.18013500	     -0.65581053	      0.98828629	     -0.00721171	    -18.37383212	     -5.79635875	    -11.44211894	    -17.24353938	     13.40160427	     -1.88613462	      4.01668293	      7.15845332	      5.37210717	    -27.30415887	     -3.52678539	     -3.49222422	     20.99698570	     35.84998768	    -28.57992314	     -8.96668859	     27.15995548
      2.21500000	     13.25943497	      6.07334399	     -4.26228276	     -0.65057814	      0.98793150	     -0.00764121	    -18.63349932	     -5.96750782	    -11.34296629	    -17.36793116	     13.35773950	     -1.98063113	      4.44380968	      7.20926477	      5.46290053	    -26.97672863	     -4.08804357	     -3.69014972	     19.95542193	     36.25821678	    -28.56008520	     -9.11896143	     27.12367224
      2.22000000	     13.32489112	      6.19274649	     -4.43168575	     -0.64533462	      0.98770862	     -0.00796630	    -18.92498708	     -6.19800059	    -11.15836358	    -17.52220971	     13.20277935	     -2.15070233	      5.73373356	      7.14676105	      5.59852875	    -26.79198399	     -4.52127925	     -4.18707453	     18.98966079	     37.77773419	    -28.59245226	     -9.33656626	     27.22621496
      2.22500000	     13.32267726	      6.29936110	     -4.54387792	     -0.64013284	      0.98744504	     -0.00837743	    -19.12064844	     -6.39487501	    -10.98561428	    -17.73164164	     13.11583665	     -2.31732981	      6.04888712	      7.16405168	      5.72227943	    -26.48489689	     -4.97703298	     -4.55232313	     18.05944831	     38.06692528	    -28.56394738	     -9.51495264	     27.23241013
      2.23000000	     13.33815064	      6.41458251	     -4.67525157	     -0.63494369	      0.98725634	     -0.00878674	    -19.30193246	     -6.61415503	    -10.79540970	    -17.98871670	     12.96741265	     -2.49870522	      6.94239162	      7.13763030	      5.86859018	    -26.17940646	     -5.36389879	     -5.01431629	     17.11144827	     39.13630059	    -28.55474724	     -9.70950020	     27.30574500
      2.23500000	     13.35388900	      6.51748502	     -4.82164844	     -0.62978107	      0.98713163	     -0.00918248	    -19.44589792	     -6.82590055	    -10.55100514	    -18.30406787	     12.83801336	     -2.69124397	      7.05137890	      7.09970389	      6.00316909	    -25.89389723	     -5.74425011	     -5.33226832	     16.29957344	     39.18510613	    -28.54680448	     -9.89638522	     27.39962468
      2.24000000	     13.31598000	      6.64561885	     -4.90145898	     -0.62461045	      0.98698187	     -0.00970140	    -19.50519270	     -7.05048773	    -10.38733638	    -18.68109542	     12.59092716	     -2.92303997	      8.32552217	      7.11126637	      6.17567371	    -25.52259618	     -6.07715370	     -5.87602902	     15.34941186	     40.64384679	    -28.49182394	    -10.07839173	     27.37329838
      2.24500000	     13.29505848	      6.76690128	     -5.01280896	     -0.61945506	      0.98693006	     -0.01017964	    -19.53450336	     -7.27818594	    -10.14660872	    -19.13173435	     12.40345173	     -3.16394926	      8.47879056	      7.08951758	      6.33947950	    -25.18484965	     -6.40863054	     -6.19155705	     14.59400377	     40.71404854	    -28.45122678	    -10.26613583	     27.43724801
      2.25000000	     13.27027475	      6.87962166	     -5.11987671	     -0.61432910	      0.98694292	     -0.01066348	    -19.50663885	     -7.50271053	     -9.91650319	    -19.67152431	     12.18330669	     -3.40686047	      8.73390243	      7.06740472	      6.49203185	    -24.88481674	     -6.73562665	     -6.54501559	     13.83875620	     40.86811836	    -28.41281188	    -10.44526136	     27.48530392
      2.25500000	     13.23317992	      7.01753589	     -5.19623738	     -0.60913105	      0.98699632	     -0.01121110	    -19.44101946	     -7.75015725	     -9.71147457	    -20.24831877	     11.66770998	     -3.77945946	     10.79680071	      7.04332203	      6.67499954	    -24.55719290	     -7.02529959	     -7.01414103	     13.04653620	     42.54437892	    -28.36039115	    -10.63377731	     27.46903267
      2.26000000	     13.23580848	      7.12278152	     -5.29136655	     -0.60398724	      0.98718926	     -0.01171620	    -19.35698628	     -7.97040591	     -9.43730363	    -20.92986979	     11.34194567	     -4.06706280	     10.95644717	      6.97233000	      6.81873919	    -24.24741961	     -7.34365696	     -7.25413849	     12.40392630	     42.55513530	    -28.35420572	    -10.79990147	     27.51515878
      2.26500000	     13.16067651	      7.23958265	     -5.35290614	     -0.59883826	      0.98733778	     -0.01228395	    -19.12610215	     -8.19979676	     -9.20097532	    -21.71060720	     10.74814801	     -4.47600744	     12.62524297	      6.99930705	      6.96047499	    -23.98593105	     -7.69178638	     -7.53483500	     11.74259516	     43.24013506	    -28.26893933	    -10.95905866	     27.49168010
      2.27000000	     13.21513805	      7.34446420	     -5.46320384	     -0.59366384	      0.98772463	     -0.01277085	    -18.99015428	     -8.43548184	     -8.88417086	    -22.55897994	     10.31098188	     -4.81766810	     12.86034634	      6.86413171	      7.10009683	    -23.71317382	     -8.02473542	     -7.63128286	     11.14119120	     43.24612093	    -28.31394370	    -11.13254363	     27.57822196
      2.27500000	     13.15708038	      7.45068887	     -5.53536012	     -0.58852928	      0.98801367	     -0.01331567	    -18.65041769	     -8.66606111	     -8.59769222	    -23.53071264	      9.56132083	     -5.32601407	     14.87866916	      6.88048959	      7.21566246	    -23.52264242	     -8.42345760	     -7.72153618	     10.59178931	     43.58713936	    -28.24910358	    -11.28669100	     27.55887544
      2.28000000	     13.25806638	      7.54471650	     -5.64563369	     -0.58334726	      0.98856907	     -0.01381543	    -18.44758683	     -8.90304229	     -8.26772689	    -24.55703300	      8.98931499	     -5.71466587	     15.08907517	      6.69579668	      7.34216211	    -23.28419228	     -8.78459762	     -7.68904471	     10.01585492	     43.53392005	    -28.34493954	    -11.44769097	     27.65424121
